<?xml version="1.0" encoding="UTF-8"?>
<svg id="Capa_2" data-name="Capa 2" xmlns="http://www.w3.org/2000/svg" viewBox="0 0 83 83">
  <g id="Capa_1-2" data-name="Capa 1">
    <g>
      <path d="M41.5,83C18.62,83,0,64.38,0,41.5S18.62,0,41.5,0s41.5,18.62,41.5,41.5-18.62,41.5-41.5,41.5Zm0-80C20.27,3,3,20.27,3,41.5s17.27,38.5,38.5,38.5,38.5-17.27,38.5-38.5S62.73,3,41.5,3Z"/>
      <g>
        <path d="M41.5,68.7c-15,0-27.2-12.2-27.2-27.2S26.5,14.3,41.5,14.3s27.2,12.2,27.2,27.2-12.2,27.2-27.2,27.2Zm0-51.4c-13.34,0-24.2,10.86-24.2,24.2s10.86,24.2,24.2,24.2,24.2-10.86,24.2-24.2-10.86-24.2-24.2-24.2Z"/>
        <g>
          <path d="M42.05,60.57c-10.39,0-19.03-8.26-19.41-18.72-.39-10.71,8-19.73,18.71-20.12,2.47-.09,4.89,.28,7.21,1.11,.25,.09,.51,.21,.75,.35,2.07,1.21,2.77,3.88,1.56,5.94l-.13,.22c-1.08,1.8-3.29,2.58-5.25,1.86-.42-.15-.88-.27-1.34-.36-2.75-.56-5.56-.01-7.9,1.54s-3.94,3.92-4.49,6.67c-1.15,5.68,2.53,11.24,8.21,12.39,5.68,1.16,11.24-2.53,12.39-8.21,.41-2.07,2.24-3.58,4.36-3.58,.25,.02,.54,.02,.81,.07,2.42,.45,4.02,2.77,3.57,5.19-1.77,8.9-9.31,15.32-18.35,15.65-.24,0-.48,.01-.72,.01Zm.03-35.86c-.2,0-.41,0-.61,.01-9.05,.33-16.15,7.96-15.82,17.02,.16,4.39,2.02,8.45,5.23,11.44,3.21,2.99,7.39,4.55,11.79,4.39,7.65-.28,14.03-5.71,15.52-13.22,.14-.77-.38-1.53-1.17-1.67-.09-.02-.17-.05-.26-.02h0c-.69,0-1.29,.49-1.42,1.17-1.48,7.31-8.63,12.04-15.93,10.56-7.3-1.48-12.04-8.62-10.56-15.93,.72-3.54,2.77-6.58,5.78-8.58s6.61-2.7,10.15-1.98c.59,.12,1.18,.28,1.75,.48,.64,.23,1.33,0,1.66-.57l.12-.21c.37-.63,.15-1.45-.49-1.83-.07-.04-.15-.08-.24-.11-1.78-.63-3.62-.95-5.49-.95Z"/>
          <path d="M43.39,45.57c-2.95,0-5.36-2.4-5.36-5.36s2.4-5.36,5.36-5.36h.01c2.96,0,5.35,2.42,5.35,5.37,0,2.95-2.41,5.34-5.36,5.34Zm0-9.22v1.5c-1.3,0-2.36,1.06-2.36,2.36s1.06,2.36,2.36,2.36,2.35-1.05,2.36-2.35c0-1.3-1.05-2.36-2.35-2.36v-1.5Z"/>
        </g>
      </g>
    </g>
  </g>
</svg>