<?xml version="1.0" encoding="UTF-8"?>
<svg id="Capa_2" data-name="Capa 2" xmlns="http://www.w3.org/2000/svg" viewBox="0 0 83 83">
  <g id="Capa_1-2" data-name="Capa 1">
    <g>
      <path d="M41.5,83C18.62,83,0,64.38,0,41.5S18.62,0,41.5,0s41.5,18.62,41.5,41.5-18.62,41.5-41.5,41.5Zm0-80C20.27,3,3,20.27,3,41.5s17.27,38.5,38.5,38.5,38.5-17.27,38.5-38.5S62.73,3,41.5,3Z"/>
      <path d="M43,26.1h0s-1.34,.56-1.34,.56l-25.14-10.51V59.16l1.21,.64,22.27,11.7,1.5,.79,1.5-.79,22.13-11.63,.55-.29,.8-.49V16.28l-23.48,9.82Zm20.48-5.31v15l-17.93-7.5h0s0,0,0,0l17.93-7.5Zm0,19.88v15.27l-18.25-7.63,13.96-5.84,4.29-1.79Zm-26.02,7.63l-17.94,7.5v-15l17.94,7.5Zm21.65-9.06l-16.11,6.74v-15.51l18.54,7.75-2.43,1.02Zm-19.11-8.64v15.51l-18.54-7.75,2.43-1.02,16.11-6.74Zm-20.48-9.95l18.25,7.63-6.3,2.63-11.95,5v-15.27Zm20.48,47.46l-18.68-9.82,5.28-2.21,13.39-5.6v17.63Zm3,0v-17.49h0s5.52,2.31,5.52,2.31l13.01,5.44-18.54,9.74Z"/>
    </g>
  </g>
</svg>