<?xml version="1.0" encoding="UTF-8"?>
<svg id="Capa_2" data-name="Capa 2" xmlns="http://www.w3.org/2000/svg" viewBox="0 0 83 83">
  <g id="Capa_1-2" data-name="Capa 1">
    <g>
      <path d="M41.5,83C18.62,83,0,64.38,0,41.5S18.62,0,41.5,0s41.5,18.62,41.5,41.5-18.62,41.5-41.5,41.5Zm0-80C20.27,3,3,20.27,3,41.5s17.27,38.5,38.5,38.5,38.5-17.27,38.5-38.5S62.73,3,41.5,3Z"/>
      <g>
        <path d="M23.29,57.2c-1.4,0-4.15-.27-6.3-2.12-1.81-1.56-2.77-3.85-2.86-6.79V25.43s31.11,0,31.11,0c2.93,.29,8.54,2.32,8.77,7.9v23.84s-29.93,0-29.93,0c-.14,.01-.42,.03-.8,.03Zm-6.16-28.77v19.82c.06,2.02,.67,3.56,1.8,4.55,1.93,1.68,4.88,1.38,4.91,1.38h.17s27,0,27,0v-20.77c-.17-4.1-5.32-4.88-6.01-4.97H17.13Z"/>
        <path d="M68.39,58.5l-15.69-10.41v-13.34l15.69-10.66V58.5Zm-12.69-12.02l9.69,6.43V29.76l-9.69,6.58v10.14Z"/>
      </g>
    </g>
  </g>
</svg>