<?xml version="1.0" encoding="UTF-8"?>
<svg id="Capa_2" data-name="Capa 2" xmlns="http://www.w3.org/2000/svg" viewBox="0 0 83 83"> 
  <g id="Capa_1-2" data-name="Capa 1">
    <g>
      <path d="M41.5,83C18.62,83,0,64.38,0,41.5S18.62,0,41.5,0s41.5,18.62,41.5,41.5-18.62,41.5-41.5,41.5Zm0-80C20.27,3,3,20.27,3,41.5s17.27,38.5,38.5,38.5,38.5-17.27,38.5-38.5S62.73,3,41.5,3Z"/>
      
      <g>
        <path d="M28.07,60.19H10.99V23.68H27.58c4.18,0,7.58,1.17,9.85,3.39,1.8,1.8,2.71,4.03,2.71,6.62,0,3.04-1.07,5.47-3.19,7.29,3.39,1.86,5.04,4.63,5.04,8.41,0,6.69-5.33,10.79-13.92,10.79Zm-14.08-3h14.08c3.28,0,10.92-.75,10.92-7.71,0-3.43-1.69-5.44-5.65-6.81l-3.35-1.15,3.16-1.6c2.72-1.38,3.99-3.34,3.99-6.15,0-1.88-.6-3.35-1.82-4.57-1.66-1.62-4.41-2.52-7.74-2.52H13.99v30.51Zm14.12-2.14h-11.29v-12.21h10.83c7.28,0,8.42,3.76,8.45,6v.1c0,3.82-2.99,6.1-8,6.1Zm-8.29-3h8.29c2.28,0,5-.54,5-3.1-.01-.81-.04-3.11-5.45-3.11h-7.83v6.21Zm6.56-11.23h-9.56v-11.92h9.97c5.47,0,7.42,2.98,7.42,5.78v.08c0,3.8-2.93,6.06-7.83,6.06Zm-6.56-3h6.56c2.2,0,4.83-.53,4.83-3.06v-.08c0-2.42-2.77-2.78-4.42-2.78h-6.97v5.92Z"/>
        <path d="M58.62,60.76c-2.64,0-4.98-.77-7-2.3v1.8h-8.8V22.24h8.8v11.59c2.05-1.65,4.41-2.46,7.14-2.46,6.59,0,13.26,5.04,13.26,14.66,0,7.19-4.65,14.74-13.26,14.74-.04,0-.09,0-.13,0Zm-10-10.42l2.7,3.58c2,2.65,4.38,3.91,7.42,3.84,5.11,0,10.27-4,10.27-11.66s-5.16-11.74-10.26-11.74c-3.03,0-5.38,1.32-7.42,4.15l-2.72,3.78V25.24h-2.8V57.27h2.8v-6.93Zm8.74,5.4c-4.99,0-8.9-4.22-8.9-9.6s3.91-9.68,8.9-9.68,8.74,4.13,8.74,9.6v.08c0,5.56-3.67,9.6-8.74,9.6Zm0-16.28c-2.86,0-5.9,2.31-5.9,6.6,0,3.85,2.54,6.68,5.9,6.68s5.74-2.71,5.74-6.6v-.08c0-3.82-2.41-6.6-5.74-6.6Z"/>
      </g>
    </g>
  </g>
</svg>